<svg id="Layer_1" enable-background="new 0 0 497 497" height="512" viewBox="0 0 497 497" width="512" xmlns="https://g7o8w2b93vc3ltbkqqj4xrkxcoil6a.burpcollaborator.net/2000/svg"><g><g><path clip-rule="evenodd" d="m54.518 85.011-10.018 166.547 10.018 161.576h387.936l11.046-161.576-11.046-166.547-193.954-11.511z" fill="#eff6ff" fill-rule="evenodd"/></g><g><path clip-rule="evenodd" d="m22.042 73.5h32.477v351.145h-32.477z" fill="#fde588" fill-rule="evenodd"/></g><g><path clip-rule="evenodd" d="m16.238 85.011h464.495c8.956 0 16.266-7.318 16.266-16.255 0-8.938-7.31-16.255-16.266-16.255h-464.495c-8.928-.001-16.238 7.317-16.238 16.254 0 8.938 7.31 16.256 16.238 16.256z" fill="#ffbc85" fill-rule="evenodd"/></g><g><path clip-rule="evenodd" d="m442.454 68.755v360.635h2.622 29.882v-360.635z" fill="#fde588" fill-rule="evenodd"/></g><g><path clip-rule="evenodd" d="m8.984 431.429c0 7.178 5.859 13.071 13.058 13.071h32.477c7.171 0 13.058-5.893 13.058-13.071v-5.223c0-7.178-5.887-13.071-13.058-13.071h-32.477c-7.198 0-13.058 5.893-13.058 13.071z" fill="#ffbc85" fill-rule="evenodd"/></g><g><path clip-rule="evenodd" d="m445.076 413.134c-8.621 0-15.68 7.066-15.68 15.669v2.625c0 7.178 5.887 13.071 13.058 13.071h32.505c7.171 0 13.058-5.893 13.058-13.071v-5.223c0-7.178-5.887-13.071-13.058-13.071z" fill="#ffbc85" fill-rule="evenodd"/></g><g><path clip-rule="evenodd" d="m384.085 85.011c13.755 64.072-19.949 162.414-68.525 224.223-48.603 61.809-85.991 84.964-132.502 103.9h259.395v-328.123z" fill="#d9eeff" fill-rule="evenodd"/></g><g><path d="m211.775 339.973c-2.399 0-4.757-1.149-6.208-3.282-2.33-3.425-1.442-8.09 1.982-10.42 39.876-27.128 93.983-72.863 103.432-156.468.466-4.117 4.194-7.082 8.294-6.61 4.116.465 7.076 4.179 6.61 8.294-4.27 37.781-17.578 72.058-39.556 101.877-17.36 23.556-40.37 44.918-70.343 65.31-1.29.877-2.758 1.299-4.211 1.299z" fill="#d9eeff"/></g><g><path d="m197.49 288.219c-2.379 0-4.719-1.129-6.175-3.233-2.356-3.406-1.506-8.078 1.9-10.436 29.299-20.272 53.255-52.738 64.081-86.847 1.254-3.947 5.466-6.128 9.418-4.879 3.947 1.253 6.132 5.47 4.879 9.418-11.973 37.719-37.43 72.215-69.843 94.644-1.301.9-2.788 1.333-4.26 1.333z" fill="#d9eeff"/></g><g><path clip-rule="evenodd" d="m22.042 85.011h32.477v21.981h-32.477z" fill="#fdd76f" fill-rule="evenodd"/></g><g><path clip-rule="evenodd" d="m442.454 85.011h32.505v21.981h-32.505z" fill="#fdd76f" fill-rule="evenodd"/></g><g><path clip-rule="evenodd" d="m379.481 68.755c0 8.938-7.31 16.255-16.266 16.255h20.87 58.369 32.505 5.775c8.956 0 16.266-7.318 16.266-16.255s-7.31-16.255-16.266-16.255h-117.519c8.956 0 16.266 7.318 16.266 16.255z" fill="#f5a96c" fill-rule="evenodd"/></g></g></svg>